
      <svg data-logo="logo" xmlns="http://www.w3.org/2000/svg" viewBox="0 0 214 42">
        <g id="logogram" transform="translate(0, 1) rotate(0) "><path d="M13.7544 6.5C13.7544 4.77609 13.0696 3.12278 11.8506 1.90381C10.6316 0.684818 8.9783 0 7.25439 0C5.53048 0 3.87719 0.684818 2.6582 1.90381C1.43921 3.12278 0.754395 4.77609 0.754395 6.5V26.1553L6.10734 29.9908V39.3346H8.40145V29.9908L13.7544 26.1553V6.5ZM11.4603 17.4926L8.40145 20.5515V17.6838L11.4603 14.625V17.4926ZM3.09631 14.625L6.15513 17.6838V20.5515L3.09631 17.4926V14.625ZM11.4603 11.375L7.25439 15.5809L3.04851 11.2794V8.41177L7.25439 12.6176L11.4603 8.41177V11.375ZM7.25439 2.29412C8.17939 2.2982 9.07754 2.60541 9.81126 3.16867C10.545 3.73192 11.0739 4.52016 11.3169 5.41268L7.25439 9.46323L3.19189 5.41268C3.42601 4.51129 3.95107 3.71235 4.68562 3.13985C5.42016 2.56733 6.32311 2.25324 7.25439 2.24631V2.29412ZM3.04851 24.9963V20.6949L6.10734 23.7537V27.171L3.04851 24.9963ZM8.40145 27.1829V23.7537L11.4603 20.6949V24.9844L8.40145 27.1829Z" fill="#394149"/></g>
        <g id="logotype" transform="translate(20, 1.5)"><path fill="#111111" d="M26.06 32L23.61 32L21.16 25.31L11.25 25.31L9.04 32L6.42 32L14.89 8.13L17.34 8.13L26.06 32ZM16.08 11.56L12.05 23.14L20.35 23.14L16.08 11.56ZM30.75 32L28.37 32L28.37 6.59L30.75 6.59L30.75 32ZM38.06 32L35.68 32L35.68 17.79L32.88 17.79L32.88 15.62L35.68 15.62L35.68 10.19L38.06 10.19L38.06 15.62L41.84 15.62L41.84 17.79L38.06 17.79L38.06 32ZM55.95 15.62L58.33 15.62L58.33 32L55.95 32L55.95 29.27Q55.11 30.84 53.72 31.70Q52.34 32.56 50.52 32.56L50.52 32.56Q48.80 32.56 47.35 31.86Q45.90 31.16 45.04 29.80Q44.19 28.43 44.19 26.57L44.19 26.57L44.19 15.62L46.56 15.62L46.56 25.52Q46.56 30.39 50.91 30.39L50.91 30.39Q53.42 30.39 54.69 28.61Q55.95 26.82 55.95 23.81L55.95 23.81L55.95 15.62ZM70.30 15.06Q71.14 15.06 71.91 15.30L71.91 15.30L71.91 17.47Q71.17 17.13 70.30 17.13L70.30 17.13Q68.79 17.13 67.50 17.96Q66.20 18.80 65.41 20.40Q64.63 21.99 64.63 24.16L64.63 24.16L64.63 32L62.24 32L62.24 15.62L64.63 15.62L64.63 18.91Q65.57 17.09 67.02 16.07Q68.47 15.06 70.30 15.06L70.30 15.06ZM86.47 15.62L88.85 15.62L88.85 32L86.47 32L86.47 29.59Q85.45 30.98 83.98 31.77Q82.51 32.56 80.76 32.56L80.76 32.56Q78.42 32.56 76.56 31.44Q74.71 30.32 73.66 28.32Q72.61 26.33 72.61 23.77L72.61 23.77Q72.61 21.25 73.64 19.28Q74.67 17.30 76.51 16.18Q78.35 15.06 80.69 15.06L80.69 15.06Q82.48 15.06 83.96 15.85Q85.45 16.63 86.47 18.07L86.47 18.07L86.47 15.62ZM80.69 30.39Q82.37 30.39 83.68 29.55Q85.00 28.71 85.73 27.20Q86.47 25.70 86.47 23.81L86.47 23.81Q86.47 21.92 85.73 20.41Q85.00 18.91 83.68 18.07Q82.37 17.23 80.69 17.23L80.69 17.23Q79.05 17.23 77.75 18.07Q76.46 18.91 75.72 20.40Q74.99 21.88 74.99 23.77L74.99 23.77Q74.99 25.70 75.72 27.20Q76.46 28.71 77.75 29.55Q79.05 30.39 80.69 30.39L80.69 30.39ZM123.81 32L121.05 32L114.99 21.46L110.27 21.46L110.27 32L107.64 32L107.64 8.13L115.62 8.13Q117.79 8.13 119.44 8.97Q121.08 9.81 121.96 11.33Q122.83 12.85 122.83 14.81L122.83 14.81Q122.83 17.20 121.40 18.89Q119.96 20.59 117.58 21.18L117.58 21.18L123.81 32ZM110.27 10.30L110.27 19.29L115.27 19.29Q117.58 19.29 118.82 18.07Q120.07 16.84 120.07 14.81L120.07 14.81Q120.07 12.78 118.82 11.54Q117.58 10.30 115.27 10.30L115.27 10.30L110.27 10.30ZM133.96 15.06Q136.17 15.06 137.95 16.14Q139.74 17.23 140.75 19.10Q141.77 20.98 141.77 23.28L141.77 23.28Q141.77 23.95 141.73 24.30L141.73 24.30L128.26 24.30Q128.40 26.82 129.90 28.61Q131.41 30.39 134.00 30.39L134.00 30.39Q136.10 30.39 137.48 29.60Q138.86 28.81 139.70 27.41L139.70 27.41L141.59 28.68Q140.44 30.50 138.55 31.53Q136.66 32.56 134.07 32.56L134.07 32.56Q131.69 32.56 129.83 31.44Q127.98 30.32 126.93 28.32Q125.88 26.33 125.88 23.81L125.88 23.81Q125.88 21.29 126.91 19.29Q127.94 17.30 129.78 16.18Q131.62 15.06 133.96 15.06L133.96 15.06ZM128.40 22.34L139.39 22.34Q139.04 19.78 137.67 18.51Q136.31 17.23 133.96 17.23L133.96 17.23Q131.69 17.23 130.23 18.68Q128.78 20.13 128.40 22.34L128.40 22.34ZM157.62 15.62L160.00 15.62L160.00 32L157.62 32L157.62 29.59Q156.61 30.98 155.14 31.77Q153.67 32.56 151.92 32.56L151.92 32.56Q149.57 32.56 147.72 31.44Q145.86 30.32 144.81 28.32Q143.76 26.33 143.76 23.77L143.76 23.77Q143.76 21.25 144.79 19.28Q145.83 17.30 147.66 16.18Q149.50 15.06 151.85 15.06L151.85 15.06Q153.63 15.06 155.12 15.85Q156.61 16.63 157.62 18.07L157.62 18.07L157.62 15.62ZM151.85 30.39Q153.53 30.39 154.84 29.55Q156.15 28.71 156.89 27.20Q157.62 25.70 157.62 23.81L157.62 23.81Q157.62 21.92 156.89 20.41Q156.15 18.91 154.84 18.07Q153.53 17.23 151.85 17.23L151.85 17.23Q150.20 17.23 148.91 18.07Q147.61 18.91 146.88 20.40Q146.14 21.88 146.14 23.77L146.14 23.77Q146.14 25.70 146.88 27.20Q147.61 28.71 148.91 29.55Q150.20 30.39 151.85 30.39L151.85 30.39ZM166.47 32L164.09 32L164.09 6.59L166.47 6.59L166.47 32ZM173.79 32L171.41 32L171.41 17.79L168.61 17.79L168.61 15.62L171.41 15.62L171.41 10.19L173.79 10.19L173.79 15.62L177.57 15.62L177.57 17.79L173.79 17.79L173.79 32ZM185.72 29.20L190.94 15.62L193.18 15.62L184.32 39L181.94 39L184.53 32.31L177.81 15.62L180.30 15.62L185.72 29.20Z"/></g>
        
      </svg>
    